
<svg width="1440" height="800" viewBox="0 0 1440 800" fill="none" xmlns="http://www.w3.org/2000/svg">
  <g opacity="0.3">
    <path d="M-122 183L206 0M-122 183L206 366M-122 183L-57 549M-122 183L237 732M206 0L206 366M206 0L494 183M206 0L640 366M206 366L494 183M206 366L-57 549M206 366L237 732M206 366L640 366M-57 549L237 732M-57 549L-57 915M237 732L494 549M237 732L425 915M494 183L640 366M494 183L782 0M494 183L928 183M494 183L908 366M494 183L494 549M640 366L494 549M640 366L908 366M640 366L782 732M494 549L494 915M494 549L128 732M494 549L782 732M494 549L908 366M-57 915L128 732M-57 915L425 915M128 732L425 915M128 732L494 915M425 915L494 915M782 0L928 183M782 0L1070 0M782 0L1216 183M782 732L908 366M782 732L1216 549M782 732L711 915M782 732L908 915M928 183L1216 183M928 183L908 366M1070 0L1216 183M1070 0L1358 0M1070 0L1504 183M908 366L908 915M1216 183L1504 183M1216 183L1216 549M1216 549L1504 183M1216 549L908 915M1216 549L1504 732M1358 0L1504 183M494 915L711 915M711 915L908 915M908 915L1196 732M1196 732L1504 732" stroke="url(#paint0_radial_310_22)" stroke-width="0.5"/>
  </g>
  <defs>
    <radialGradient id="paint0_radial_310_22" cx="0" cy="0" r="1" gradientUnits="userSpaceOnUse" gradientTransform="translate(691 457.5) rotate(90) scale(457.5 813)">
      <stop stop-color="#00A0D6"/>
      <stop offset="1" stop-color="#00A0D6" stop-opacity="0"/>
    </radialGradient>
  </defs>
</svg>
